<?xml version="1.0" standalone="no"?><!DOCTYPE svg PUBLIC "-//W3C//DTD SVG 1.1//EN" "http://www.w3.org/Graphics/SVG/1.1/DTD/svg11.dtd"><svg class="icon" width="200px" height="200.00px" viewBox="0 0 1024 1024" version="1.1" xmlns="http://www.w3.org/2000/svg"><path d="M234.1 677.1h151.6v75.8H234.1v-75.8zM638.3 677.1h151.6v75.8H638.3v-75.8zM436.2 677.1h151.6v75.8H436.2v-75.8zM234.1 550.8h151.6v75.8H234.1v-75.8zM638.3 550.8h151.6v75.8H638.3v-75.8zM436.2 550.8h151.6v75.8H436.2v-75.8z" fill="#29CCB6" /><path d="M663.6 96.1h101.1v227.4H663.6V96.1zM259.4 96.1h101.1v227.4H259.4V96.1z" fill="#4585F5" /><path d="M890.9 929.8H133.1c-27.9 0-50.5-22.6-50.5-50.5V424.5c0-27.9 22.6-50.5 50.5-50.5H891c27.9 0 50.5 22.6 50.5 50.5v454.7c0 28-22.6 50.6-50.6 50.6zM183.6 828.7h656.8V475H183.6v353.7z" fill="#4585F5" /><path d="M941.5 475h-859C54.6 475 32 452.4 32 424.5V197.1c0-27.9 22.6-50.5 50.5-50.5h858.9c27.9 0 50.5 22.6 50.5 50.5v227.4c0.1 27.9-22.5 50.5-50.4 50.5zM133.1 374H891V247.7H133.1V374z" fill="#4585F5" /></svg>